<?xml version="1.0" encoding="UTF-8" standalone="no"?>
<svg
   xmlns:dc="http://purl.org/dc/elements/1.1/"
   xmlns:cc="http://creativecommons.org/ns#"
   xmlns:rdf="http://www.w3.org/1999/02/22-rdf-syntax-ns#"
   xmlns:svg="http://www.w3.org/2000/svg"
   xmlns="http://www.w3.org/2000/svg"
   viewBox="0 0 918.42523 204.09448"
   height="204.09448"
   width="918.42523"
   xml:space="preserve"
   id="svg834"
   version="1.1"><metadata
     id="metadata840"><rdf:RDF><cc:Work
         rdf:about=""><dc:format>image/svg+xml</dc:format><dc:type
           rdf:resource="http://purl.org/dc/dcmitype/StillImage" /><dc:title></dc:title></cc:Work></rdf:RDF></metadata><defs
     id="defs838" /><g
     transform="matrix(1.3333333,0,0,1.3333333,0,2.4356954e-6)"
     id="g842"><g
       id="g844"><path
         id="path846"
         style="fill:#ffffff;fill-opacity:1;fill-rule:nonzero;stroke:none"
         d="m 5.668,5.668 v 141.73 H 229.605 V 5.668 Z M 96.379,19.84 h 28.344 V 133.227 H 96.379 V 70.535 L 54.09,133.227 H 19.898 Z m 42.519,0 h 76.481 l -19.121,28.348 h -29.012 v 43.015 l -28.348,42.024 z" /><path
         id="path848"
         style="fill:#ffffff;fill-opacity:1;fill-rule:nonzero;stroke:none"
         d="m 243.777,67.121 h 7.61 l 6.468,-18.016 h 25.266 l 6.031,18.016 h 8.125 L 275.949,6.449 h -9.437 z m 16.266,-24.297 10.75,-30.172 10.141,30.172 z" /><path
         id="path850"
         style="fill:#ffffff;fill-opacity:1;fill-rule:nonzero;stroke:none"
         d="m 309.32,67.121 h 21.157 c 13.984,0 22.203,-6.562 22.203,-17.656 0,-7.61 -4.282,-13.375 -11.36,-15.735 4.188,-2.359 6.813,-7.343 6.813,-12.687 0,-9.266 -7.438,-14.594 -20.375,-14.594 H 309.32 Z M 333.367,32.496 H 316.57 V 12.652 h 10.313 c 9.281,0 13.812,3.422 13.812,10.328 0,4.282 -1.922,7.079 -6.718,9.516 -0.188,0 -0.438,0 -0.61,0 z M 316.57,60.918 V 38.527 h 16 c 7.703,0 12.672,4.907 12.672,12.422 0,7 -4.187,9.969 -13.89,9.969 z" /><path
         id="path852"
         style="fill:#ffffff;fill-opacity:1;fill-rule:nonzero;stroke:none"
         d="m 382.078,67.996 c 13.547,0 22.375,-6.906 22.375,-17.578 0,-21.5 -34.015,-12.938 -34.015,-28.578 0,-6.391 5.171,-9.875 14.437,-9.875 5.156,0 10.75,1.047 15.125,2.875 l 2.172,-5.672 c -5.156,-2.281 -11.016,-3.5 -16.781,-3.5 -13.547,0 -22.375,6.734 -22.375,17.312 0,20.797 33.922,13.016 33.922,28.485 0,6.125 -5.25,10.062 -14.422,10.062 -5.516,0 -12.328,-1.484 -18.282,-3.937 l -2.187,5.687 c 6.734,3.063 13.562,4.719 20.031,4.719 z" /><path
         id="path854"
         style="fill:#ffffff;fill-opacity:1;fill-rule:nonzero;stroke:none"
         d="m 431.109,67.121 h 7.25 V 12.746 h 20.282 V 6.449 h -47.735 v 6.297 h 20.203 z" /><path
         id="path856"
         style="fill:#ffffff;fill-opacity:1;fill-rule:nonzero;stroke:none"
         d="m 469.809,67.121 h 7.25 V 42.559 h 11.984 c 0.609,0 1.219,0 1.922,-0.094 l 14.078,24.656 h 8.656 l -15.39,-26.234 c 7.343,-2.875 11.89,-9.344 11.89,-17.485 0,-10.656 -7.875,-16.953 -20.281,-16.953 h -20.109 z m 19.234,-54.375 c 8.656,0 13.719,4.453 13.719,11.969 0,7.437 -4.547,11.719 -12.844,11.719 H 477.059 V 12.746 Z" /><path
         id="path858"
         style="fill:#ffffff;fill-opacity:1;fill-rule:nonzero;stroke:none"
         d="m 519.852,67.121 h 7.609 l 6.469,-18.016 h 25.265 l 6.032,18.016 h 8.125 L 552.023,6.449 h -9.437 z m 16.265,-24.297 10.75,-30.172 10.141,30.172 z" /><path
         id="path860"
         style="fill:#ffffff;fill-opacity:1;fill-rule:nonzero;stroke:none"
         d="m 611.535,67.996 c 5.86,0 11.969,-1.312 17.75,-3.844 l -1.672,-5.343 c -4.359,1.75 -9.781,2.812 -14.422,2.812 -14.515,0 -24.125,-10.328 -24.125,-25.797 0,-14.781 8.829,-23.781 23.422,-23.781 4.907,0 10.407,1.047 15.047,2.797 l 2.094,-5.422 c -4.453,-2.359 -10.75,-3.75 -16.703,-3.75 -18.797,0 -31.297,12.766 -31.297,31.812 0,18.282 11.984,30.516 29.906,30.516 z" /><path
         id="path862"
         style="fill:#ffffff;fill-opacity:1;fill-rule:nonzero;stroke:none"
         d="m 655.621,67.121 h 7.25 V 12.746 h 20.281 V 6.449 h -47.734 v 6.297 h 20.203 z" /><path
         id="path864"
         style="fill:#ffffff;fill-opacity:1;fill-rule:nonzero;stroke:none"
         d="m 243.773,146.48 h 12.047 v -26.578 h 27.594 v -10.39 H 255.82 V 93.043 h 30.625 V 82.652 h -42.672 z" /><path
         id="path866"
         style="fill:#ffffff;fill-opacity:1;fill-rule:nonzero;stroke:none"
         d="m 324.438,147.309 c 19.218,0 32,-13.329 32,-33.297 0,-19.313 -12.407,-32.282 -31.079,-32.282 -18.953,0 -31.547,13.344 -31.547,33.297 0,19.407 12.235,32.282 30.626,32.282 z m 0.921,-10.297 c -11.593,0 -19.218,-9.203 -19.218,-23 0,-13.141 7.265,-21.891 18.297,-21.891 11.765,0 19.687,9.109 19.687,22.906 0,13.157 -7.547,21.985 -18.766,21.985 z" /><path
         id="path868"
         style="fill:#ffffff;fill-opacity:1;fill-rule:nonzero;stroke:none"
         d="m 392.621,147.402 c 16.188,0 26.766,-10.125 26.766,-25.484 V 82.652 h -11.672 v 40.657 c 0,8.64 -5.063,13.796 -13.61,13.796 -9.578,0 -15,-5.796 -15,-15.453 v -39 h -11.859 v 39.922 c 0,15.266 9.75,24.828 25.375,24.828 z" /><path
         id="path870"
         style="fill:#ffffff;fill-opacity:1;fill-rule:nonzero;stroke:none"
         d="m 433.816,146.48 h 11.219 V 98.84 l 31.375,47.64 h 13.235 V 82.652 h -11.313 l -0.094,47.547 -30.812,-47.547 h -13.61 z" /><path
         id="path872"
         style="fill:#ffffff;fill-opacity:1;fill-rule:nonzero;stroke:none"
         d="m 505.309,146.48 h 21.156 c 20.609,0 34.39,-12.875 34.39,-33.203 0,-19.218 -12.312,-30.625 -33.109,-30.625 H 505.309 Z M 517.09,136.277 V 92.855 h 9.75 c 13.875,0 21.797,8.094 21.797,21.985 0,13.703 -7.453,21.437 -20.797,21.437 z" /><path
         id="path874"
         style="fill:#ffffff;fill-opacity:1;fill-rule:nonzero;stroke:none"
         d="m 572.848,146.48 h 11.875 v -23.812 h 10.75 l 13.609,23.812 h 14.266 l -16,-26.296 c 7.343,-3.5 11.953,-10.313 11.953,-18.954 0,-11.765 -8.656,-18.578 -22.625,-18.578 h -23.828 z m 22.265,-53.531 c 7.438,0 11.86,3.781 11.86,10.125 0,5.969 -3.672,9.563 -10.297,9.563 H 584.723 V 92.949 Z" /><path
         id="path876"
         style="fill:#ffffff;fill-opacity:1;fill-rule:nonzero;stroke:none"
         d="m 648.57,146.48 h 11.86 V 121.465 L 683.148,82.652 H 669.992 L 654.914,110.98 639.102,82.652 h -13.985 l 23.453,38.625 z" /></g></g></svg>